<?xml version="1.0" ?><svg style="enable-background:new 0 0 16 16;" version="1.1" viewBox="0 0 16 16" xml:space="preserve" xmlns="http://www.w3.org/2000/svg" xmlns:xlink="http://www.w3.org/1999/xlink"><g id="Guide"/><g id="Layer_2"><path d="M10.14,2.4C9.38,2.4,8.63,2.63,8,3.05C7.37,2.63,6.62,2.4,5.86,2.4C3.73,2.4,2,4.13,2,6.26c0,1.22,0.57,2.35,1.5,3.04   l4.15,4.15c0.1,0.1,0.23,0.15,0.35,0.15s0.26-0.05,0.35-0.15l4.09-4.1C13.43,8.61,14,7.49,14,6.26C14,4.13,12.27,2.4,10.14,2.4z    M11.79,8.6L8,12.39L4.15,8.55C3.42,8,3,7.17,3,6.26C3,4.68,4.28,3.4,5.86,3.4c0.66,0,1.31,0.23,1.82,0.65   c0.19,0.15,0.45,0.15,0.64,0C8.83,3.63,9.48,3.4,10.14,3.4C11.72,3.4,13,4.68,13,6.26C13,7.17,12.58,8,11.79,8.6z"/></g></svg>